<svg xmlns="http://www.w3.org/2000/svg" xmlns:xlink="http://www.w3.org/1999/xlink" viewBox="0 0 575.71 575"><defs><style>.cls-1{fill:url(#radial-gradient);}.cls-2{fill:url(#radial-gradient-2);}.cls-3{fill:#fff;}.cls-4{opacity:0.7;}.cls-5{fill:url(#linear-gradient);}.cls-6{fill:#4daaa7;}.cls-7{fill:#8ec6c4;}.cls-8{fill:#376e6c;}.cls-9{fill:#2c5250;}.cls-10{fill:#f09959;}.cls-11{fill:#e38540;}.cls-12{fill:#96cfe0;}.cls-13{fill:#6fb8b5;}.cls-14{fill:#a86b48;}.cls-15{fill:#2e5b9a;}.cls-16{fill:#3e6bab;}.cls-17{fill:#f0ceb4;}.cls-18{fill:#f7a96f;}.cls-19{fill:#9cd499;}</style><radialGradient id="radial-gradient" cx="-437.4" cy="-193.66" r="360.32" gradientTransform="translate(811.32 220.63) scale(1.5 2.66)" gradientUnits="userSpaceOnUse"><stop offset="0.11" stop-color="#e3f1f0"/><stop offset="0.6" stop-color="#8ec6c4"/><stop offset="1" stop-color="#4daaa7"/></radialGradient><radialGradient id="radial-gradient-2" cx="-436.58" cy="-111.34" r="354.5" gradientTransform="translate(811.47 124.82) scale(1.5 1.5)" gradientUnits="userSpaceOnUse"><stop offset="0.11" stop-color="#e3f1f0"/><stop offset="0.62" stop-color="#8ec6c4"/><stop offset="1" stop-color="#4daaa7"/></radialGradient><linearGradient id="linear-gradient" x1="135.73" y1="181.18" x2="440.27" y2="181.18" gradientUnits="userSpaceOnUse"><stop offset="0.22" stop-color="#e3f1f0"/><stop offset="0.35" stop-color="#d1e8e7"/><stop offset="0.6" stop-color="#a1d2d0"/><stop offset="0.95" stop-color="#54adab"/><stop offset="0.98" stop-color="#4daaa7"/></linearGradient></defs><title>bg-sm</title><g id="Illustration"><rect class="cls-1" x="0.17" width="575.36" height="575"/><path class="cls-2" d="M.5,34.62C5.19,52.29,18.33,91.27,55,116.92c17.17,12,34.42,17.56,50.14,20.9,85.76,18.21,122.09-30,197.79-24.38,87.67,6.46,107.66,76.15,187.33,67.58,38.4-4.13,67.61-24,85-38.32.23,66.87.45,114.93.68,181.8H.5C-.7,227.1,1.7,132,.5,34.62Z" transform="translate(-0.15 -0.5)"/><path class="cls-3" d="M.3,553.44c15.55-3.93,38.45-7.9,64.74-5.1,15.13,1.61,22.07,4.47,38.21,7.5,29.59,5.56,53.73,4.84,75.07,4.2,45.74-1.35,72.74-10.08,120.2-13.63,20.74-1.54,35.35-2.43,57.25-1.63,67.92,2.48,104,14.81,159.4,1.71a218.26,218.26,0,0,0,60.54-23.92v52.78H.3Z" transform="translate(-0.15 -0.5)"/><g class="cls-4"><path class="cls-5" d="M150.82,254.9s-25.51-31.63-10.2-61.74,44.39-23,85.21-53.57c49.55-37.17,84.35-39.21,128.58-23,25,9.18,29.08,46.94,68.88,70.41,35.88,21.16,6.63,57.15-12.24,62.76s-31.64,5.61-31.64,5.61Z" transform="translate(-0.15 -0.5)"/><path class="cls-6" d="M302.71,186.89c-6.36,12.92-14.35,48.24-16.53,50.18s-14.75,9.44-16.93,13.06-1.21,2.42-.24,2.67,55.64.48,55.64.48-6.29-37.5-7-37.74S302.71,186.89,302.71,186.89Z" transform="translate(-0.15 -0.5)"/><path class="cls-7" d="M293.66,253.1l26.47.16-8-47.76c-4.26-8.26-9.43-18.61-9.43-18.61-.8,1.63-1.63,3.61-2.47,5.84-.83,35.88,4.34,45.93.46,52.32C297.67,250,294.91,252.27,293.66,253.1Z" transform="translate(-0.15 -0.5)"/><path class="cls-8" d="M407.18,255.67H144.64a2,2,0,1,1,0-4H407.18a2,2,0,1,1,0,4Z" transform="translate(-0.15 -0.5)"/><path class="cls-6" d="M336.24,171.29c9.09,8.38,29.3,16.33,29.3,16.33s3.07,28.37,1,44.44-.93,19.33-.93,19.33H323.9s-5.59-7.77-15.83-31.9c-6.52-15.37-5.36-32.6-5.36-32.6l25.38-11.41Z" transform="translate(-0.15 -0.5)"/><path class="cls-7" d="M323.9,251.39h41.68s-1.16-3.26.93-19.33c1.73-13.23-.05-34.8-.73-42L362,188.42c-9.52,2.75-15,16.94-16.61,30.81-1.08,9.28-16.46,18.42-26.52,23.45A83.7,83.7,0,0,0,323.9,251.39Z" transform="translate(-0.15 -0.5)"/><path class="cls-9" d="M313.68,142.16c-5,11.19,1,21.56.83,21.12s7.6-18.89,7.6-18.89Z" transform="translate(-0.15 -0.5)"/><path class="cls-10" d="M332.72,150.44l6.38,23.29a2.1,2.1,0,0,1-.41,1.88c-1.49,1.84-3.62,5.63-7.91,6.85a10.86,10.86,0,0,1-2.7.3,1.81,1.81,0,0,1-1.79-1.47L322,159.2Z" transform="translate(-0.15 -0.5)"/><path class="cls-11" d="M331.51,152.38l-2.33,1L322,159.2l3.84,19.58C332.38,174.72,333.33,172,331.51,152.38Z" transform="translate(-0.15 -0.5)"/><path class="cls-10" d="M332.49,160.74c-1.41,7.66-7.14,12.84-12.81,11.57s-8.36-6.23-7.69-16.17c.52-7.8,4.36-16.28,10-15S333.9,153.08,332.49,160.74Z" transform="translate(-0.15 -0.5)"/><path class="cls-6" d="M365.54,187.62c8.43,1.9,10,19,12.74,37.1.32,2.07,1.94,19.67,1.94,19.67a5.39,5.39,0,0,1-3.07,4.84c-2.75,1.38-3.87,2.42-19.84,2.58-15.33.16-35.11-.48-35.11-.48s-.17-5.71,1.4-8.5c2.37-4.19,26.62-10.21,28.87-10.53.33-4.52-2.22-20.86,1.29-31.94,2.42-7.62,5-11.61,8.28-12.66A6.66,6.66,0,0,1,365.54,187.62Z" transform="translate(-0.15 -0.5)"/><path class="cls-7" d="M330.88,251.68c7.56.11,17.93.22,26.43.13,16-.16,17.09-1.2,19.84-2.58a5.66,5.66,0,0,0,3.39-4.35s-1.63-18.73-1.94-20.81c-1.77-12.1-3.69-25.94-8.15-32.62a91.09,91.09,0,0,1,4.94,27.09,26.77,26.77,0,0,1-.82,7.47c-.72,2.38-2.58,3.87-5.48,3.06-5.81-1.61-13.07,1.77-13.07,1.77s5.49-1.93,10.65-.16,15.8,13.55,4.19,17.91C367.31,249.92,346,251,330.88,251.68Z" transform="translate(-0.15 -0.5)"/><path class="cls-12" d="M324.89,243.37a8,8,0,0,1,6.56-3.65c4.41,0,4.09,7.2,3.44,9.57a3.58,3.58,0,0,1-3.22,2.47l-9.47-.43Z" transform="translate(-0.15 -0.5)"/><rect class="cls-13" x="253.86" y="249.16" width="62.92" height="3.74" rx="1.34"/><path class="cls-10" d="M323.71,243.8c-9.25-3.33-11.67-2.08-13.76-2.69-5.16-1.5-6.46-.21-9.79,8.93-.66,1.82,1.29,1.93,3.23,1.93s4.3-3.76,5.05-4.19a10.45,10.45,0,0,1,2.8-.64s-.65,0-1.62,1.93-2.15,2.69-.64,2.69,1.72-2.47,4.52-1.94,1.72,1.94,8.7,1.83,12.27,0,12.16-4.19c-.11-4,.33-6-3.45-6.67C328,240.25,323.71,243.8,323.71,243.8Z" transform="translate(-0.15 -0.5)"/><path class="cls-14" d="M323.83,243.8c6.18-.7,4.37,7,3.72,7.65s3.45.23,3.45.23a7.46,7.46,0,0,0,.3-6.64,6,6,0,0,0-4.83-3.71l-2.75,1.5Z" transform="translate(-0.15 -0.5)"/><path class="cls-15" d="M330.29,243.13c-.08,1-1.7,1.6-3.63,1.44s-3.41-1.07-3.33-2,1.7-1.6,3.62-1.44S330.37,242.18,330.29,243.13Z" transform="translate(-0.15 -0.5)"/><path class="cls-16" d="M329.8,242.66c-.08.85-1.52,1.42-3.24,1.28s-3.05-.95-3-1.8,1.52-1.43,3.24-1.29S329.87,241.8,329.8,242.66Z" transform="translate(-0.15 -0.5)"/><path class="cls-17" d="M328.72,242.26c-.05.62-1.09,1-2.33.93s-2.19-.69-2.14-1.3,1.09-1,2.33-.93S328.77,241.65,328.72,242.26Z" transform="translate(-0.15 -0.5)"/><path class="cls-6" d="M253.47,241.59H193.38a6.58,6.58,0,0,1-6.45-5.45l-7.83-43.26a6.61,6.61,0,0,1,6.44-7.84h60.09a6.57,6.57,0,0,1,6.44,5.44l7.84,43.26A6.62,6.62,0,0,1,253.47,241.59Z" transform="translate(-0.15 -0.5)"/><path class="cls-13" d="M256.27,233.91l-8-42.37a6.64,6.64,0,0,0-6.58-5.33H180.63a6.76,6.76,0,0,0-1.53,5.65L187.21,236a6.79,6.79,0,0,0,6.67,5.56H249.7A6.55,6.55,0,0,0,256.27,233.91Z" transform="translate(-0.15 -0.5)"/><path class="cls-6" d="M241.78,247.38h-11.4a3.88,3.88,0,0,1-3.69-4V222.47c0-3.55-2.62-6.44-5.86-6.44h-6c-3.24,0-5.86,2.89-5.86,6.44v23.36c0,4,3,7.23,6.59,7.2l31.14-.21A5.21,5.21,0,0,0,241.78,247.38Z" transform="translate(-0.15 -0.5)"/><path class="cls-13" d="M209.46,222.94v23A7.08,7.08,0,0,0,216,253l30.38-.19c0-.5-2.4-1.4-5.36-1.4H228.72a4,4,0,0,1-4-4V222.94a6.34,6.34,0,0,0-6.34-6.34h-2.6A6.34,6.34,0,0,0,209.46,222.94Z" transform="translate(-0.15 -0.5)"/><path class="cls-10" d="M273.06,244.73c4.59-2.55,10.2-1.7,12.24.85s2.39,4.25-2.21,4.25-13.77.34-15.3.17S273.06,244.73,273.06,244.73Z" transform="translate(-0.15 -0.5)"/><path class="cls-10" d="M279.86,243.2c4.93-1.19,8.3,1.68,12.42,4.42,3.57,2.38,4.29,4.69.34,2.72-5.79-2.89-9.19-3.23-9.19-3.23Z" transform="translate(-0.15 -0.5)"/><path class="cls-10" d="M275.37,244.71c-2.49,0-4.66-.79-6.42-.65s-7.33,5.86-6.45,6.3a1,1,0,0,0,.21.09,3,3,0,0,0,3.55-1.25c.79-1.26,2.07-2.73,3.57-2.21a15.88,15.88,0,0,0,5.1.8Z" transform="translate(-0.15 -0.5)"/><path class="cls-18" d="M273.91,250.85c-2.55-1,1.53-9.52,2.89-9.52s6.46,4.08,6.46,4.08-1.2.68-5.27-.68c-1-.34-1.87,5.44-3.06,6.12S273.91,250.85,273.91,250.85Z" transform="translate(-0.15 -0.5)"/><path class="cls-8" d="M312,160.62c-.23,9.36,3,10.95,5.19,12.22s11.84-.83,13.25-3.15c3.61-5.92.57-11.45,1.38-11.36s1.55,2.39,3.65,5.38c.2.28,1.57,2.13,1.64,1.51,1-8.38,5.34-11,4.3-19.47-.76-6.25-4.73-5.75-4.73-5.75s-2.56-5.23-10.53-4.64c-5.34.4-10.1,2.48-15.61,3.9s6.52,13.89,13.65,9.33,3.62,5.48,4.75,6.26.54.1,1.05,5.24-6,8.49-7.87,8.93c-6,1.41-7,.42-8.29-1.83C312.67,165.24,312,160.62,312,160.62Z" transform="translate(-0.15 -0.5)"/><path class="cls-10" d="M336.73,157.72c-.68,2.36-2.36,3.88-3.74,3.4s-1.43-2.39-1.26-5.14c.14-2.47,2.36-3.88,3.74-3.4S337.42,155.36,336.73,157.72Z" transform="translate(-0.15 -0.5)"/><rect class="cls-13" x="153.87" y="126.91" width="53.06" height="23.98" rx="4.6"/><rect class="cls-3" x="155.32" y="133.21" width="50.16" height="16.55" rx="3.72"/><rect class="cls-3" x="156.06" y="128.67" width="2.08" height="1.87" rx="0.67"/><rect class="cls-3" x="159.84" y="128.67" width="2.08" height="1.87" rx="0.67"/><rect class="cls-3" x="163.62" y="128.67" width="2.08" height="1.87" rx="0.67"/><path class="cls-13" d="M203.59,137.33H177.06a.79.79,0,0,1,0-1.58h26.53a.79.79,0,1,1,0,1.58Z" transform="translate(-0.15 -0.5)"/><path class="cls-13" d="M183.64,149.58H157.11a.8.8,0,1,1,0-1.59h26.53a.8.8,0,0,1,0,1.59Z" transform="translate(-0.15 -0.5)"/><rect class="cls-13" x="185.36" y="147.49" width="3.29" height="1.59" rx="0.57"/><rect class="cls-13" x="189.49" y="147.49" width="3.29" height="1.59" rx="0.57"/><path class="cls-13" d="M203.84,140.79H159.91a.54.54,0,1,1,0-1.07h43.93a.54.54,0,1,1,0,1.07Z" transform="translate(-0.15 -0.5)"/><path class="cls-13" d="M203.84,143.12H159.91a.55.55,0,0,1-.54-.54.54.54,0,0,1,.54-.54h43.93a.54.54,0,0,1,.54.54A.54.54,0,0,1,203.84,143.12Z" transform="translate(-0.15 -0.5)"/><path class="cls-6" d="M170.47,143.74h43.85a4.6,4.6,0,0,1,4.6,4.6v14.77a4.6,4.6,0,0,1-4.6,4.6H170.47a4.61,4.61,0,0,1-4.61-4.61V148.35A4.61,4.61,0,0,1,170.47,143.74Z"/><rect class="cls-3" x="167.31" y="150.04" width="50.16" height="16.55" rx="3.72"/><rect class="cls-3" x="168.05" y="145.51" width="2.08" height="1.87" rx="0.67"/><rect class="cls-3" x="171.83" y="145.51" width="2.08" height="1.87" rx="0.67"/><rect class="cls-3" x="175.61" y="145.51" width="2.08" height="1.87" rx="0.67"/><path class="cls-6" d="M215.58,154.17H189.05a.8.8,0,0,1,0-1.59h26.53a.8.8,0,0,1,0,1.59Z" transform="translate(-0.15 -0.5)"/><path class="cls-6" d="M195.62,166.41H169.09a.79.79,0,1,1,0-1.58h26.53a.79.79,0,1,1,0,1.58Z" transform="translate(-0.15 -0.5)"/><rect class="cls-6" x="197.34" y="164.33" width="3.29" height="1.59" rx="0.57"/><rect class="cls-6" x="201.48" y="164.33" width="3.29" height="1.59" rx="0.57"/><path class="cls-6" d="M215.83,157.63H171.9a.54.54,0,0,1,0-1.08h43.93a.54.54,0,0,1,0,1.08Z" transform="translate(-0.15 -0.5)"/><path class="cls-6" d="M215.83,160H171.9a.54.54,0,0,1-.54-.54.54.54,0,0,1,.54-.54h43.93a.54.54,0,0,1,.54.54A.54.54,0,0,1,215.83,160Z" transform="translate(-0.15 -0.5)"/><path class="cls-19" d="M238,162.35a6.89,6.89,0,1,1-6.89-6.88A6.89,6.89,0,0,1,238,162.35Z" transform="translate(-0.15 -0.5)"/><path class="cls-3" d="M230.38,164.9h0a.55.55,0,0,1-.38-.18l-1.87-2.13a.52.52,0,1,1,.79-.69l1.5,1.71,3.61-3.52a.52.52,0,0,1,.74,0,.53.53,0,0,1,0,.75l-4,3.91A.55.55,0,0,1,230.38,164.9Z" transform="translate(-0.15 -0.5)"/><rect class="cls-6" x="236.09" y="110.13" width="47.87" height="19.73" rx="7.06"/><path class="cls-6" d="M242,127.38v10.89l12.55-12.54S242.28,127.38,242,127.38Z" transform="translate(-0.15 -0.5)"/><rect class="cls-3" x="238.57" y="112.09" width="42.92" height="15.82" rx="5.66"/><path class="cls-6" d="M262.09,116.5H242.7a.85.85,0,1,1,0-1.7h19.39a.85.85,0,1,1,0,1.7Z" transform="translate(-0.15 -0.5)"/><rect class="cls-6" x="241.7" y="118.3" width="36.9" height="0.96" rx="0.34"/><rect class="cls-6" x="241.7" y="120.15" width="36.9" height="0.96" rx="0.34"/><rect class="cls-6" x="269.07" y="125.35" width="2.08" height="1.87" rx="0.67"/><rect class="cls-6" x="272.85" y="125.35" width="2.08" height="1.87" rx="0.67"/><rect class="cls-6" x="276.63" y="125.35" width="2.08" height="1.87" rx="0.67"/></g></g></svg>