<?xml version="1.0" standalone="no"?>
<!DOCTYPE svg PUBLIC "-//W3C//DTD SVG 20010904//EN"
 "http://www.w3.org/TR/2001/REC-SVG-20010904/DTD/svg10.dtd">
<svg version="1.0" xmlns="http://www.w3.org/2000/svg"
 width="255.000000pt" height="265.000000pt" viewBox="0 0 255.000000 265.000000"
 preserveAspectRatio="xMidYMid meet">

<g transform="translate(0.000000,265.000000) scale(0.100000,-0.100000)"
fill="#000000" stroke="none">
<path d="M15 2636 c-12 -9 -15 -18 -9 -28 5 -9 135 -155 290 -324 154 -170
297 -328 318 -351 l38 -43 -36 -42 c-20 -23 -36 -45 -36 -50 0 -4 -6 -8 -13
-8 -7 0 -101 -89 -209 -197 -206 -208 -220 -229 -198 -289 12 -30 345 -374
391 -403 15 -9 43 -38 63 -64 l37 -48 -298 -326 c-164 -180 -310 -342 -325
-361 -29 -36 -28 -62 4 -62 16 0 708 377 727 396 4 3 8 60 11 126 l5 120 26
-29 c14 -15 110 -115 214 -220 127 -130 200 -196 222 -204 67 -22 85 -10 291
200 107 108 202 206 213 219 34 41 39 28 39 -108 l0 -130 38 -24 c120 -77 693
-385 706 -380 9 3 16 14 16 24 0 11 -144 178 -321 372 -176 194 -323 358 -326
364 -5 13 75 124 90 124 15 0 377 361 393 392 18 35 18 82 0 116 -15 28 -359
373 -387 388 -9 5 -33 31 -53 57 -32 42 -35 51 -24 65 7 9 151 169 321 354
175 193 307 346 307 357 0 10 -7 22 -16 25 -14 5 -682 -355 -726 -392 -15 -13
-18 -33 -18 -129 0 -62 -4 -113 -8 -113 -5 0 -18 10 -30 23 -113 122 -393 402
-414 413 -38 20 -77 17 -119 -9 -28 -17 -284 -275 -407 -409 -8 -10 -19 -18
-24 -18 -4 0 -8 45 -8 99 0 55 -4 110 -9 123 -7 17 -102 75 -352 213 -188 105
-350 193 -360 197 -9 4 -25 1 -34 -6z m385 -199 l345 -192 3 -127 3 -128 -42
-37 c-23 -21 -45 -39 -49 -41 -10 -4 -640 689 -640 705 0 7 8 13 18 12 9 0
172 -87 362 -192z m2130 182 c0 -7 -17 -30 -37 -53 -76 -83 -567 -622 -584
-640 -17 -18 -19 -17 -69 25 l-53 44 6 125 c3 68 9 126 14 127 4 2 161 89 348
193 187 104 348 190 358 190 9 0 17 -5 17 -11z m-1102 -475 c313 -64 547 -279
634 -581 20 -66 23 -100 22 -228 0 -135 -3 -158 -28 -235 -104 -320 -360 -530
-697 -571 -399 -48 -774 214 -880 617 -28 108 -29 288 -1 394 85 321 345 558
672 613 61 10 207 6 278 -9z m-678 -1575 l0 -128 -354 -195 c-194 -108 -359
-196 -365 -196 -32 0 12 56 252 317 144 158 287 314 317 348 l55 62 47 -40 48
-40 0 -128z m1451 -165 c178 -195 325 -362 327 -370 2 -8 -4 -14 -13 -14 -19
0 -701 376 -711 392 -4 5 -9 68 -12 140 l-5 129 39 40 c21 21 41 39 45 39 3 0
152 -160 330 -356z"/>
<path d="M825 1717 c-90 -155 -94 -334 -10 -502 64 -130 166 -220 302 -267 96
-32 251 -32 338 2 128 49 227 139 283 254 43 89 55 154 50 263 -5 85 -9 102
-46 177 -68 137 -96 145 -171 51 l-43 -55 -2 -92 -1 -93 -47 -3 c-27 -2 -48 1
-48 5 0 4 -5 15 -10 23 -7 12 -13 11 -34 -10 -15 -13 -26 -27 -26 -32 0 -4 41
-8 90 -8 l90 0 0 -141 0 -140 -37 3 c-31 2 -39 7 -41 26 -2 12 -5 22 -6 22 -2
0 -24 -11 -48 -25 -88 -49 -190 -45 -283 10 -32 19 -63 35 -71 35 -26 0 -84
61 -93 98 -5 21 -17 120 -26 222 -10 102 -22 193 -27 203 -17 33 -55 21 -83
-26z"/>
<path d="M1243 1301 c-40 -46 -42 -50 -22 -56 36 -12 106 -7 137 9 35 18 84
74 76 87 -3 5 -38 9 -77 9 l-72 0 -42 -49z"/>
</g>
</svg>
