<svg xmlns="http://www.w3.org/2000/svg" xmlns:xlink="http://www.w3.org/1999/xlink" viewBox="0 0 1393.99 680.79"><defs><style>.cls-1{fill:url(#linear-gradient);}.cls-2{fill:#4daaa7;}.cls-3{fill:#8ec6c4;}.cls-4{fill:#376e6c;}.cls-5{fill:#2c5250;}.cls-6{fill:#f09959;}.cls-7{fill:#e38540;}.cls-8{fill:#96cfe0;}.cls-9{fill:#6fb8b5;}.cls-10{fill:#a86b48;}.cls-11{fill:#2e5b9a;}.cls-12{fill:#3e6bab;}.cls-13{fill:#f0ceb4;}.cls-14{fill:#f7a96f;}.cls-15{fill:#fff;}.cls-16{fill:#9cd499;}</style><linearGradient id="linear-gradient" y1="339.77" x2="1393.99" y2="339.77" gradientUnits="userSpaceOnUse"><stop offset="0.22" stop-color="#e3f1f0"/><stop offset="0.35" stop-color="#d1e8e7"/><stop offset="0.6" stop-color="#a1d2d0"/><stop offset="0.95" stop-color="#54adab"/><stop offset="0.98" stop-color="#4daaa7"/></linearGradient></defs><title>Asset 1</title><g id="Layer_2" data-name="Layer 2"><g id="Layer_2-2" data-name="Layer 2"><path class="cls-1" d="M69.1,677.21S-47.68,532.41,22.39,394.62s203.19-105.1,390-245.23C639.24-20.73,798.52-30.08,1001,44.29c114.44,42,133.12,214.87,315.29,322.3,164.23,96.85,30.37,261.58-56,287.27s-144.8,25.69-144.8,25.69Z"/><path class="cls-2" d="M764.34,365.9c-29.15,59.16-65.69,220.84-75.66,229.7s-67.55,43.19-77.51,59.8-5.54,11.07-1.11,12.18,254.7,2.21,254.7,2.21C824.86,439.26,848.9,541.87,764.34,365.9Z"/><path class="cls-3" d="M722.9,669c46,.32,94.47.57,121.17.71L807.51,451.07c-19.5-37.8-43.17-85.17-43.17-85.17C748.19,392.1,753,421,752.89,456.48,754,596.22,785.77,617.4,722.9,669Z"/><path class="cls-4" d="M1242.53,680.75H41.59c2.48-.56-7.84,2.86-10.08-9.27,3.45-14.23,14.25-7.79,14.89-9.27H936.29C1182.67,664.54,1288,652.1,1242.53,680.75Z"/><path class="cls-2" d="M917.82,294.49c41.57,38.37,134.09,74.75,134.09,74.75,20,174.94-8.93,283.28.2,291.89H861.33s-25.6-35.53-72.48-146C759,444.77,764.34,365.9,764.34,365.9,792.14,353.35,893.51,308.74,917.82,294.49Z"/><path class="cls-3" d="M861.33,661.13h190.78s-5.32-14.92,4.27-88.46c7.9-60.56-.24-159.31-3.36-192.3l-17.35-7.44c-43.56,12.56-68.66,77.52-76,141-4.94,42.48-75.33,84.3-121.37,107.33C853.39,650.11,861.33,661.13,861.33,661.13Z"/><path class="cls-5" d="M814.56,161.17c-23,51.22,4.6,98.67,3.77,96.67s34.81-86.48,34.81-86.48Z"/><path class="cls-6" d="M901.71,199.05c-.5,6.59,37.15,114.71,26.41,116.39-16.72,28.42-53.59,42.8-56.41,22.05-3.15-16.29-19-98.22-19-98.34Z"/><path class="cls-7" d="M896.14,208c-9.32,1-36.63,26.08-43.44,31.19l17.59,89.64C900.13,310.19,904.48,297.64,896.14,208Z"/><path class="cls-6" d="M900.64,246.21c-17.42,79.48-101.82,68.28-94.16-15.24C819.36,91.25,909.9,177.76,900.64,246.21Z"/><path class="cls-2" d="M1051.91,369.24c39.25,8.25,46.55,93.16,58.46,170.78,15.24,143.36,39.31,123.55-256.81,120.85,0,0-.8-26.12,6.4-38.89,10.83-19.19,121.81-46.76,132.15-48.23C990.7,546.55,975.28,361.75,1051.91,369.24Z"/><path class="cls-3" d="M893.25,662.46c270.36,4.44,225.92-3.14,221.48-96.32-6.3-58.67-16.09-140.78-40.34-179.36,22,71,23.49,102.24,21.8,142.65-4.19,56.1-46,11.66-87.84,37.67,67-24.85,126.65,63.35,66.66,81.64C1055.28,654.72,961.17,659.42,893.25,662.46Z"/><path class="cls-8" d="M865.86,624.44c48.75-52.81,58.94,30.55,36.63,37.07-4.47,1.64-5.5,1.24-6,1.31l-43-2Z"/><path class="cls-9" d="M822,670.35H557.31c-23.63,2.9-20.45-21.71,2.45-17.12C766.33,655.8,860.86,643.12,822,670.35Z"/><path class="cls-6" d="M860.45,626.41c-35.06-12.69-49.87-10.9-58.49-11.52-7-1.18-23-6.64-29.6,1-10.07,10.32-38.52,62.93,2.7,44.67,11.46-10.94,16.57-19.57,28.3-18.86-9.87,8-24.32,35,2.28,12.8,15.68-2.88,16,5.1,25.75,6.37,25.39,3.41,59.37,1.38,69.38-3.57,6.93-4.35,8.67-6.07,8.32-18.87C912.28,595.05,870.47,617,860.45,626.41Z"/><path class="cls-10" d="M861,626.41c28.3-3.2,20,32.06,17,35s15.75,1,15.75,1c12.06-20.57-2.93-46.38-20.74-47.37L860.51,622Z"/><path class="cls-11" d="M890.55,623.34c-.75,9.4-29,8.1-31.7-1.22C855.32,610.44,891.37,612.55,890.55,623.34Z"/><path class="cls-12" d="M888.3,621.17c-.26,7.89-25.34,7.61-28.28-.93C856.06,610,888.9,611.22,888.3,621.17Z"/><path class="cls-13" d="M883.39,619.36c-.13,5.83-20.31,5.39-20.48-1.71C863.05,611.83,883.23,612.26,883.39,619.36Z"/><path class="cls-2" d="M538.92,616.26h-275a30.09,30.09,0,0,1-29.49-24.9l-35.87-198c-3.39-18.67,10.76-35.89,29.48-35.89H503.05a30.1,30.1,0,0,1,29.49,24.91l35.87,198C571.8,599.05,557.65,616.26,538.92,616.26Z"/><path class="cls-9" d="M551.78,581.12c-45.87-228-24.36-218.66-91.87-218.31H205.54c-18.36,20.29,6.25,77.8,16.45,153.61,13.94,66.44,8.19,99.37,46.43,99.84C526.69,613.51,553.32,630.68,551.78,581.12Z"/><path class="cls-2" d="M485.45,642.78c-47-1.5-71.9,9.25-69.08-27.6-1.49-88.42,16.24-133.43-68.25-111.46-23.79,11.38-8.78,100.24-12.7,130.73,2.93,39,28.42,34.26,60.26,34l112.44-.77C508.12,653.93,498,642.78,485.45,642.78Z"/><path class="cls-9" d="M337.5,530.93c-.13,176.84-17.76,131.52,169.17,136.77-20.51-18.36-100.92,10.67-99.25-24.81-.95-12,2.41-118.81-2.28-123.26C393.06,490,336.81,497.1,337.5,530.93Z"/><path class="cls-6" d="M628.61,630.65c21-11.68,46.7-7.78,56,3.89S695.55,654,674.53,654s-63,1.56-70,.78S628.61,630.65,628.61,630.65Z"/><path class="cls-6" d="M659.74,623.64c29.17-12.58,121.13,65.07,33,22-11-3.63-16.24-4-16.6-4.12Z"/><path class="cls-6" d="M639.18,630.58c-11.54.24-24.95-5-32.08-2.15-10.21,5-32.33,27.22-25.89,28.42,32.48-.76,3.26-23.78,56-12.19Z"/><path class="cls-14" d="M632.5,658.67c-11.68-4.67,7-43.59,13.23-43.59s29.58,18.68,29.58,18.68c.63,1.55-12.49.4-25.28-3C645.1,633.49,640.68,666.27,632.5,658.67Z"/><path class="cls-4" d="M806.77,245.66c-2.36,70.55,43.35,64.43,81.41,44.67,18.72-17.91,7.43-54.49,9-55.11,2.05-4.73,16.78,30.83,24.53,31.52,5.06-33.11,44.72-106.6-2-115.47-23.15-46.25-132.35-.64-126,2.91-2,14.63,32.88,46.4,60,40.15,6.53-1.25,22-13.08,26.34-7.93,6.81,4.95,2.19,23.71,3.21,30.63,5.47,8.85,4.16-.8,5.91,30.28-3,30.76-45.91,43.89-64.31,38.5C813.23,283.83,806.93,249.31,806.77,245.66Z"/><path class="cls-6" d="M920.05,232.39c-12,30.44-30,13.24-21.3-14.52C909.4,198.14,926.4,211.64,920.05,232.39Z"/><path class="cls-9" d="M322,203.39s-206.4,0-231.23,0c-1.61.84-9-1.62-7-8.21,2.2-33.55-5.81-108.34,6-101.54H296.57c18.77.83,29.67-3.08,30,5.2C324.51,112.69,331.72,208.11,322,203.39Z"/><path class="cls-15" d="M316.24,198.24s-206.42,0-221.3,0c-3,.37-5.57-2-4.55-13.15V129.51c-.93-6.86,3.37-7.15,5.76-7H316.09c-.12.37.25-1.07,3.37,1.84C319.7,128.74,323.58,200.71,316.24,198.24Z"/><path class="cls-15" d="M101.21,110.27c-6.94,1.94-10.63-4.46-5.39-8.56C102.76,99.77,106.45,106.17,101.21,110.27Z"/><path class="cls-15" d="M118.51,110.27c-6.94,1.94-10.63-4.46-5.39-8.56C120.06,99.77,123.75,106.17,118.51,110.27Z"/><path class="cls-15" d="M135.81,110.27c-6.94,1.94-10.63-4.46-5.4-8.56C137.36,99.77,141.05,106.17,135.81,110.27Z"/><path class="cls-9" d="M310.62,139.08c-4-.53-119.12,1-123.26-.5-12.55-11.54,32.45-5.35,63.4-6.77C282.81,132.89,327.54,127.56,310.62,139.08Z"/><path class="cls-9" d="M219.29,195.12c-4-.52-119.12,1-123.27-.49-12.55-11.54,32.46-5.35,63.4-6.77C191.48,188.94,236.2,183.61,219.29,195.12Z"/><path class="cls-9" d="M241.66,195.12h-7.14C210.21,192.17,251.78,179.1,241.66,195.12Z"/><path class="cls-9" d="M260.6,195.12h-7.14C229.15,192.17,270.72,179.1,260.6,195.12Z"/><path class="cls-9" d="M311.79,154.9H127.21c-12.71-1.13-15.9,2.74-19-2.46-4.58-5.36,79.87-1.25,136.7-2.47C281.13,151.35,325,145.93,311.79,154.9Z"/><path class="cls-9" d="M311.79,165.54H127.21c-12.71-1.13-15.9,2.74-19-2.46-4.58-5.36,79.87-1.25,136.7-2.47C281.13,162,325,156.57,311.79,165.54Z"/><path class="cls-2" d="M376.88,280.45c-.05,0-206.4,0-231.23,0-1.61.84-9-1.62-7-8.21,2.21-33.55-5.8-108.34,6-101.54H351.44c18.78.83,29.68-3.08,30,5.2C379.39,189.75,386.59,285.17,376.88,280.45Z"/><path class="cls-15" d="M371.12,275.3s-206.42,0-221.3,0c-2.95.37-5.58-2-4.56-13.15V206.57c-.92-6.86,3.38-7.15,5.76-7H371c-.11.37.26-1.07,3.37,1.84C374.57,205.8,378.45,277.77,371.12,275.3Z"/><path class="cls-15" d="M156.09,187.34c-6.94,1.93-10.63-4.46-5.4-8.57C157.64,176.83,161.33,183.23,156.09,187.34Z"/><path class="cls-15" d="M173.39,187.34c-6.95,1.93-10.64-4.47-5.4-8.57C174.94,176.83,178.63,183.23,173.39,187.34Z"/><path class="cls-15" d="M190.68,187.34c-6.94,1.93-10.63-4.47-5.39-8.57C192.23,176.83,195.93,183.23,190.68,187.34Z"/><path class="cls-2" d="M365.5,216.14H262.09c-15-1-14.64,2.34-21.16-1.8-6-9.43,23.4-4.3,47.85-5.47C325.45,210.35,384.79,203.86,365.5,216.14Z"/><path class="cls-2" d="M274.16,272.18c-4-.52-119.12,1-123.26-.49-12.55-11.54,32.45-5.35,63.4-6.77C246.35,266,291.08,260.67,274.16,272.18Z"/><path class="cls-2" d="M296.53,272.18H289.4C265.09,269.23,306.65,256.16,296.53,272.18Z"/><path class="cls-2" d="M315.47,272.18h-7.13C284,269.23,325.6,256.16,315.47,272.18Z"/><path class="cls-2" d="M366.67,232H182.09c-12.71-1.13-15.9,2.74-19-2.46-4.59-5.36,79.87-1.25,136.7-2.47C336,228.41,379.91,223,366.67,232Z"/><path class="cls-2" d="M366.67,242.6H182.09c-12.71-1.13-15.9,2.74-19-2.46-4.59-5.36,79.87-1.25,136.7-2.47C336,239.05,379.91,233.63,366.67,242.6Z"/><path class="cls-16" d="M467.88,253.59c-2.6,43.6-62.11,39.76-63.05,0C407.44,210,466.94,213.83,467.88,253.59Z"/><path class="cls-15" d="M433.23,265.24c-13.57-8.44-14.32-23.82.13-5.88C465.29,225.61,453.49,251.89,433.23,265.24Z"/><path class="cls-2" d="M669.87,107.16s-121.39,0-175.28,0c-21.31-.94-35.79,5.09-34.51-14.19,1.57-49.2-6.3-78.77,11.59-76.11h193c16.64-.2,14.73,3.55,14.59,37.53C678,84.48,684.17,106.62,669.87,107.16Z"/><path class="cls-2" d="M486.55,93.53v49.82L544,85.94S487.71,93.53,486.55,93.53Z"/><path class="cls-15" d="M660,98.2s-33,0-70.85,0C442.86,95,475.21,117.14,471.41,39.61c-1.29-11.68,4.87-13.91,8.94-13.8H654.83c12.8-.25,13.8,1.21,13,27.83C666.84,79.27,672.12,97.44,660,98.2Z"/><path class="cls-2" d="M578.4,43.71c-5-2.33-115.39,6.68-88.74-7.78C494.63,38.26,605.05,29.25,578.4,43.71Z"/><path class="cls-2" d="M652.52,58.6H512.07c-17.32-1.14-23.7,2.64-26.3-2.21-3.2-4.64,58.14-1.14,103.87-2.17C623.19,55.49,664.56,50.54,652.52,58.6Z"/><path class="cls-2" d="M652.52,67.07H512.07c-17.32-1.14-23.7,2.64-26.3-2.21-3.2-4.64,58.14-1.14,103.87-2.17C623.19,64,664.56,59,652.52,67.07Z"/><path class="cls-2" d="M618.5,95.09c-6.94,1.94-10.63-4.46-5.39-8.56C620.05,84.59,623.75,91,618.5,95.09Z"/><path class="cls-2" d="M635.8,95.09c-6.94,1.94-10.63-4.46-5.39-8.56C637.35,84.59,641.05,91,635.8,95.09Z"/><path class="cls-2" d="M653.1,95.09c-6.94,1.94-10.63-4.46-5.39-8.56C654.65,84.59,658.34,91,653.1,95.09Z"/></g></g></svg>